<svg width="24px" height="24px" viewBox="0 0 73 72" fill="none" xmlns="http://www.w3.org/2000/svg" fit="" preserveAspectRatio="xMidYMid meet" focusable="false">
  <path d="M62.623 9.85569C56.3072 3.49444 47.9269 0 39.0015 0C38.9305 0 38.8563 0 38.7854 0H38.7725C20.5056 0.238629 5.64493 15.4586 5.64493 33.931C5.64493 39.3835 6.9352 44.7445 9.38347 49.5007C8.84801 50.6154 8.12224 51.7236 7.22228 52.7991C6.52876 53.5999 5.80299 54.221 4.93529 54.7473L4.85787 54.7963C4.09016 55.3128 3.07408 55.9601 1.98703 56.3621C1.08062 56.6825 0.5 57.4932 0.5 58.4346C0.5 59.3761 1.08384 60.1965 1.96768 60.5659C2.19992 60.6803 2.40314 60.7686 2.587 60.8471C2.74506 60.9157 2.90634 60.9843 3.09021 61.0759L3.19343 61.1249C4.09016 61.5139 5.04173 61.7591 5.96427 61.9912C7.53839 62.475 9.24477 62.7234 11.035 62.7299C12.7898 62.8411 14.4832 62.6253 16.2283 62.3736C17.4605 62.1808 18.6443 61.9192 19.7572 61.5956C25.4795 65.6915 32.1566 67.8523 39.1273 67.8523C57.5297 67.8523 72.5 52.6323 72.5 33.9212C72.5 24.8108 68.9937 16.2594 62.623 9.84589V9.85569Z" fill="##ffdad6"></path>
  <path d="M38.7952 3.00062C22.1505 3.21638 8.49276 17.0571 8.49276 34.0328C8.49276 39.4396 9.87983 44.6275 12.3346 49.0603C11.6958 50.6817 10.7346 52.1952 9.56046 53.6009C8.81213 54.4671 7.96048 55.2223 6.89279 55.8727C5.93155 56.52 4.86698 57.1705 3.69283 57.602C3.37346 57.7099 3.47992 58.0336 3.79929 58.1414C4.22512 58.3572 4.54762 58.4651 4.97344 58.6809C5.72177 59.0045 6.57342 59.2203 7.4282 59.4392C8.81526 59.8708 10.3088 60.0865 11.9088 60.0865C13.5087 60.1944 15.1087 59.9786 16.6022 59.7629C17.9893 59.5471 19.3764 59.2235 20.657 58.7887C25.7794 62.6821 32.1793 65.0586 39.1146 65.0586C55.9723 65.0586 69.63 51.11 69.63 34.0265C69.63 16.9429 55.8658 2.89273 38.7952 3.00062Z" fill="#ba1a1a"></path>
  <path d="M38.6995 29.3895C39.8267 26.5648 39.2615 23.2228 36.9784 20.9154C34.6985 18.608 31.3424 17.9891 28.4845 19.0619L31.9587 22.5753C33.204 23.8321 33.1881 25.857 31.9204 27.0917C30.6527 28.3295 28.6218 28.3104 27.3765 27.0536L23.9023 23.5433C22.7751 26.368 23.3403 29.7069 25.6234 32.0174C27.9034 34.3248 31.2562 34.9405 34.1173 33.8678L47.6468 47.5407C48.889 48.7975 50.9262 48.8165 52.1907 47.5788C53.4552 46.341 53.4744 44.3192 52.229 43.0624L38.6995 29.3895Z" fill="white"></path>
</svg>
